<svg id="eZ0g4Ixhy2s1" xmlns="http://www.w3.org/2000/svg" xmlns:xlink="http://www.w3.org/1999/xlink" viewBox="0 0 800 600" shape-rendering="geometricPrecision" text-rendering="geometricPrecision"><style><![CDATA[#eZ0g4Ixhy2s54_to {animation: eZ0g4Ixhy2s54_to__to 10000ms linear infinite forwards}@keyframes eZ0g4Ixhy2s54_to__to { 0% {transform: translate(293.159752px,90.528565px)} 100% {transform: translate(100.545393px,90.528565px)}} #eZ0g4Ixhy2s59_to {animation: eZ0g4Ixhy2s59_to__to 15000ms linear infinite forwards}@keyframes eZ0g4Ixhy2s59_to__to { 0% {transform: translate(599.39003px,199.619586px)} 60% {transform: translate(334.010247px,201.046359px)} 100% {transform: translate(334.010247px,201.046359px)}}]]></style><g id="eZ0g4Ixhy2s2" transform="matrix(1 0 0 1 0.000001 0)"><rect id="eZ0g4Ixhy2s3" width="896.212464" height="190.052813" rx="0" ry="0" transform="matrix(0.897009 0 0 1.110509 0 388.944641)" fill="rgb(82,221,114)" stroke="none" stroke-width="0" stroke-miterlimit="1"/><rect id="eZ0g4Ixhy2s4" width="800" height="388.944641" rx="0" ry="0" transform="matrix(1 0 0 1 -0.000001 0)" fill="rgb(150,224,245)" stroke="none" stroke-width="0" stroke-miterlimit="1"/></g><g id="eZ0g4Ixhy2s5" transform="matrix(1 0 0 1 0 0.000001)"><g id="eZ0g4Ixhy2s6"><rect id="eZ0g4Ixhy2s7" width="40" height="29.097225" rx="0" ry="0" transform="matrix(1 0 0 1.219466 149.58391 451.716638)" fill="rgb(212,214,219)" stroke="none" stroke-width="0" stroke-miterlimit="1"/><rect id="eZ0g4Ixhy2s8" width="40" height="29.097225" rx="0" ry="0" transform="matrix(0.746396 -0.665502 1.780072 1.996447 504.908073 454.142884)" fill="rgb(212,214,219)" stroke="none" stroke-width="0" stroke-miterlimit="1"/><rect id="eZ0g4Ixhy2s9" width="515.797844" height="23.097773" rx="0" ry="0" transform="matrix(1.036844 0 0 1.185688 0 427.52281)" fill="rgb(212,214,219)" stroke="none" stroke-width="0" stroke-miterlimit="1"/><rect id="eZ0g4Ixhy2s10" width="36.78264" height="24" rx="0" ry="0" transform="matrix(2.817062 0 0 1 0.000001 404.923451)" fill="rgb(212,214,219)" stroke="none" stroke-width="0" stroke-miterlimit="1"/><rect id="eZ0g4Ixhy2s11" width="36.78264" height="24" rx="0" ry="0" transform="matrix(6.761804 0 0 1 209.340627 404.923451)" fill="rgb(212,214,219)" stroke="none" stroke-width="0" stroke-miterlimit="1"/></g><g id="eZ0g4Ixhy2s12"><rect id="eZ0g4Ixhy2s13" width="831.762596" height="50.499872" rx="0" ry="0" transform="matrix(0.761989 0 0 1.01255 0.000001 481.995255)" fill="rgb(102,103,105)" stroke="none" stroke-width="0" stroke-miterlimit="1"/><g id="eZ0g4Ixhy2s14" transform="matrix(1 0 0 1 0 0.000001)"><rect id="eZ0g4Ixhy2s15" width="30.483657" height="9.058365" rx="0" ry="0" transform="matrix(0.891268 0 0 0.366526 27.04739 505.902014)" fill="rgb(210,219,237)" stroke="none" stroke-width="0" stroke-miterlimit="1"/><rect id="eZ0g4Ixhy2s16" width="30.483657" height="9.058365" rx="0" ry="0" transform="matrix(0.891268 0 0 0.366526 81.263887 505.902014)" fill="rgb(210,219,237)" stroke="none" stroke-width="0" stroke-miterlimit="1"/><rect id="eZ0g4Ixhy2s17" width="30.483657" height="9.058365" rx="0" ry="0" transform="matrix(0.891268 0 0 0.366526 135.678842 505.902014)" fill="rgb(210,219,237)" stroke="none" stroke-width="0" stroke-miterlimit="1"/><rect id="eZ0g4Ixhy2s18" width="30.483657" height="9.058365" rx="0" ry="0" transform="matrix(0.891268 0 0 0.366526 190.017058 505.902014)" fill="rgb(210,219,237)" stroke="none" stroke-width="0" stroke-miterlimit="1"/><rect id="eZ0g4Ixhy2s19" width="30.483657" height="9.058365" rx="0" ry="0" transform="matrix(0.891268 0 0 0.366526 244.355274 505.902014)" fill="rgb(210,219,237)" stroke="none" stroke-width="0" stroke-miterlimit="1"/><rect id="eZ0g4Ixhy2s20" width="30.483657" height="9.058365" rx="0" ry="0" transform="matrix(0.891268 0 0 0.366526 298.69349 505.902014)" fill="rgb(210,219,237)" stroke="none" stroke-width="0" stroke-miterlimit="1"/><rect id="eZ0g4Ixhy2s21" width="30.483657" height="9.058365" rx="0" ry="0" transform="matrix(0.891268 0 0 0.366526 353.031706 505.902014)" fill="rgb(210,219,237)" stroke="none" stroke-width="0" stroke-miterlimit="1"/><rect id="eZ0g4Ixhy2s22" width="30.483657" height="9.058365" rx="0" ry="0" transform="matrix(0.891268 0 0 0.366526 407.369922 505.902014)" fill="rgb(210,219,237)" stroke="none" stroke-width="0" stroke-miterlimit="1"/><rect id="eZ0g4Ixhy2s23" width="30.483657" height="9.058365" rx="0" ry="0" transform="matrix(0.891268 0 0 0.366526 461.708138 505.902014)" fill="rgb(210,219,237)" stroke="none" stroke-width="0" stroke-miterlimit="1"/></g><g id="eZ0g4Ixhy2s24" transform="matrix(1 0 0 1 0.000001 0.000001)"><rect id="eZ0g4Ixhy2s25" width="30.483657" height="9.058365" rx="0" ry="0" transform="matrix(0.630222 0.630222 -0.259173 0.259173 606.79757 503.541901)" fill="rgb(210,219,237)" stroke="none" stroke-width="0" stroke-miterlimit="1"/><rect id="eZ0g4Ixhy2s26" width="30.483657" height="9.058365" rx="0" ry="0" transform="matrix(0.630222 -0.630222 0.259173 0.259173 604.449887 505.914444)" fill="rgb(210,219,237)" stroke="none" stroke-width="0" stroke-miterlimit="1"/><rect id="eZ0g4Ixhy2s27" width="30.483657" height="9.058365" rx="0" ry="0" transform="matrix(0 1.692349 -0.366526 0 598.440334 481.767585)" fill="rgb(210,219,237)" stroke="none" stroke-width="0" stroke-miterlimit="1"/></g><g id="eZ0g4Ixhy2s28"><rect id="eZ0g4Ixhy2s29" width="30.483657" height="9.058365" rx="0" ry="0" transform="matrix(0 1.692349 -0.366526 0 524.353463 481.995255)" fill="rgb(210,219,237)" stroke="none" stroke-width="0" stroke-miterlimit="1"/><rect id="eZ0g4Ixhy2s30" width="46.396351" height="7.272605" rx="0" ry="0" transform="matrix(1 0 0 1 529.752279 488.859777)" fill="rgb(210,219,237)" stroke="none" stroke-width="0" stroke-miterlimit="1"/><rect id="eZ0g4Ixhy2s31" width="46.396351" height="7.272605" rx="0" ry="0" transform="matrix(1 0 0 1 529.752279 503.404987)" fill="rgb(210,219,237)" stroke="none" stroke-width="0" stroke-miterlimit="1"/><rect id="eZ0g4Ixhy2s32" width="46.396351" height="7.272605" rx="0" ry="0" transform="matrix(1 0 0 1 529.752284 517.950197)" fill="rgb(210,219,237)" stroke="none" stroke-width="0" stroke-miterlimit="1"/><text id="eZ0g4Ixhy2s33" dx="0" dy="0" font-family="&quot;Roboto&quot;" font-size="35" transform="matrix(0 -0.72338 0.746675 0 513.925859 520.108523)" fill="rgb(0,0,0)" stroke="none" stroke-width="0" stroke-miterlimit="1"><tspan id="eZ0g4Ixhy2s34" x="0" y="0" font-family="Roboto" font-size="35" fill="rgb(210,219,237)" stroke="none" stroke-width="0" stroke-miterlimit="1"><![CDATA[12]]></tspan></text></g><g id="eZ0g4Ixhy2s35" transform="matrix(1 0 0 1 0 0.000001)"><rect id="eZ0g4Ixhy2s36" width="32.498811" height="10.779572" rx="0" ry="0" transform="matrix(1 0 0 1 325.862598 487.199715)" fill="rgb(210,219,237)" stroke="none" stroke-width="0" stroke-miterlimit="1"/><rect id="eZ0g4Ixhy2s37" width="32.498811" height="10.779572" rx="0" ry="0" transform="matrix(1 0 0 1 325.862598 515.672289)" fill="rgb(210,219,237)" stroke="none" stroke-width="0" stroke-miterlimit="1"/></g></g><g id="eZ0g4Ixhy2s38"><rect id="eZ0g4Ixhy2s39" width="44.360672" height="128.7853" rx="0" ry="0" transform="matrix(1 0 0 1 117.113792 260.159341)" fill="rgb(180,181,183)" stroke="none" stroke-width="0" stroke-miterlimit="1"/><polygon id="eZ0g4Ixhy2s40" points="0,-80 76.084521,-24.72136 47.02282,64.72136 -47.02282,64.72136 -76.084521,-24.72136 0,-80" transform="matrix(0.667951 0 0 0.470331 139.294128 232.098801)" fill="rgb(180,181,183)" stroke="none" stroke-width="0" stroke-miterlimit="1"/><g id="eZ0g4Ixhy2s41"><path id="eZ0g4Ixhy2s42" d="M117.113792,244.17936Q117.11379,244.17936,94.038798,244.179358L102.747205,265.568367L117.11379,265.568367Q117.113794,244.17936,117.113792,244.17936Z" transform="matrix(1 0 0 1 0 -21.811412)" fill="rgb(190,218,246)" stroke="none" stroke-width="2" stroke-miterlimit="1"/><path id="eZ0g4Ixhy2s43" d="M117.113792,244.17936Q117.11379,244.17936,94.038798,244.179358L102.747205,265.568367L117.11379,265.568367Q117.113794,244.17936,117.113792,244.17936Z" transform="matrix(-1 0 0 1 278.588256 -21.811412)" fill="rgb(190,218,246)" stroke="none" stroke-width="2" stroke-miterlimit="1"/><path id="eZ0g4Ixhy2s44" d="M122.094284,244.179358L155.469377,244.17936L155.654793,265.568367L122.465116,265.568367L122.094284,244.179358Z" transform="matrix(1 0 0 1 0.000004 -21.811412)" fill="rgb(190,218,246)" stroke="none" stroke-width="1.6" stroke-miterlimit="1"/></g></g><g id="eZ0g4Ixhy2s45" transform="matrix(1 0 0 1 0.000001 0)"><rect id="eZ0g4Ixhy2s46" width="150.628708" height="80.37146" rx="0" ry="0" transform="matrix(1.403996 0 0 1 227.958076 324.551991)" fill="rgb(79,134,238)" stroke="none" stroke-width="0" stroke-miterlimit="1"/><rect id="eZ0g4Ixhy2s47" width="150.628708" height="80.37146" rx="0" ry="0" transform="matrix(1.268154 0 0 0.755014 238.188929 344.241873)" fill="rgb(183,179,181)" stroke="none" stroke-width="0" stroke-miterlimit="1"/></g><g id="eZ0g4Ixhy2s48"><rect id="eZ0g4Ixhy2s49" width="150.628708" height="80.37146" rx="0" ry="0" transform="matrix(0.607538 0 0 1 0.000001 324.551991)" fill="rgb(234,101,120)" stroke="none" stroke-width="0" stroke-miterlimit="1"/><rect id="eZ0g4Ixhy2s50" width="150.628708" height="80.37146" rx="0" ry="0" transform="matrix(0.539498 0 0 0.772816 0 342.811101)" fill="rgb(183,179,181)" stroke="none" stroke-width="0" stroke-miterlimit="1"/></g><g id="eZ0g4Ixhy2s51"><rect id="eZ0g4Ixhy2s52" width="29.923075" height="1.173842" rx="0" ry="0" transform="matrix(0.997766 -0.889602 0.890153 0.998384 526.602959 478.336275)" fill="rgb(224,214,129)" stroke="none" stroke-width="0" stroke-miterlimit="1"/><rect id="eZ0g4Ixhy2s53" width="29.923075" height="1.173842" rx="0" ry="0" transform="matrix(1.336761 0 0 1.337588 149.58391 470.340393)" fill="rgb(224,214,129)" stroke="none" stroke-width="0" stroke-miterlimit="1"/></g></g><g id="eZ0g4Ixhy2s54_to" transform="translate(293.159752,90.528565)"><g id="eZ0g4Ixhy2s54" transform="translate(-293.159752,-90.528564)"><ellipse id="eZ0g4Ixhy2s55" rx="28.618215" ry="22.745254" transform="matrix(1 0 0 1 256.576293 97.945496)" fill="rgb(210,219,237)" stroke="none" stroke-width="0" stroke-miterlimit="1"/><ellipse id="eZ0g4Ixhy2s56" rx="33.149089" ry="27.689875" transform="matrix(1 0 0 1 300.550039 88.056255)" fill="rgb(210,219,237)" stroke="none" stroke-width="0" stroke-miterlimit="1"/><ellipse id="eZ0g4Ixhy2s57" rx="24.859643" ry="22.745254" transform="matrix(1 0 0 0.76644 333.501766 97.945496)" fill="rgb(210,219,237)" stroke="none" stroke-width="0" stroke-miterlimit="1"/><ellipse id="eZ0g4Ixhy2s58" rx="37.355527" ry="11.372627" transform="matrix(1.329799 0 0 1 292.436662 109.318124)" fill="rgb(210,219,237)" stroke="none" stroke-width="0" stroke-miterlimit="1"/></g></g><g id="eZ0g4Ixhy2s59_to" transform="translate(599.39003,199.619586)"><g id="eZ0g4Ixhy2s59" transform="translate(-615.084533,-153.962848)"><ellipse id="eZ0g4Ixhy2s60" rx="28.618215" ry="22.745254" transform="matrix(0.832583 0 0 -0.771744 657.620988 164.099209)" fill="rgb(210,219,237)" stroke="none" stroke-width="0" stroke-miterlimit="1"/><ellipse id="eZ0g4Ixhy2s61" rx="33.149089" ry="27.689875" transform="matrix(1 0 0 -0.86427 614.645489 152.354858)" fill="rgb(210,219,237)" stroke="none" stroke-width="0" stroke-miterlimit="1"/><ellipse id="eZ0g4Ixhy2s62" rx="24.859643" ry="22.745254" transform="matrix(1 0 0 -0.76644 577.810102 163.978568)" fill="rgb(210,219,237)" stroke="none" stroke-width="0" stroke-miterlimit="1"/><ellipse id="eZ0g4Ixhy2s63" rx="30.617746" ry="8.776757" transform="matrix(1 0 0 1 617.176833 172.875967)" fill="rgb(210,219,237)" stroke="none" stroke-width="0" stroke-miterlimit="1"/></g></g></svg>