<?xml version="1.0" standalone="no"?>
<!DOCTYPE svg PUBLIC "-//W3C//DTD SVG 20010904//EN"
 "http://www.w3.org/TR/2001/REC-SVG-20010904/DTD/svg10.dtd">
<svg id="cessna" version="1.0" xmlns="http://www.w3.org/2000/svg"
 width="1280.000000pt" height="640.000000pt" viewBox="0 0 1280.000000 640.000000"
 preserveAspectRatio="xMidYMid meet">
<metadata>
Created by potrace 1.15, written by Peter Selinger 2001-2017
</metadata>
<g transform="translate(0.000000,640.000000) scale(0.100000,-0.100000)"
fill="#000000" stroke="none">
<path d="M11790 5320 c-11 -11 -20 -29 -20 -39 0 -15 -10 -21 -41 -26 -103
-18 -45 39 -754 -730 -279 -302 -530 -573 -559 -601 -84 -80 -240 -154 -406
-193 -127 -30 -185 -36 -945 -101 -385 -33 -961 -83 -1280 -110 -319 -28 -654
-57 -745 -64 -138 -12 -193 -13 -335 -2 -117 9 -175 9 -185 2 -12 -8 -13 -8
-2 4 31 35 -380 256 -645 346 -43 14 -82 27 -88 28 -5 2 -21 8 -35 14 -14 5
-33 13 -42 16 -10 3 -18 18 -20 38 -3 32 -10 37 -293 195 -288 160 -291 161
-375 172 -47 5 -150 19 -230 30 -80 11 -206 27 -280 35 -74 8 -184 21 -245 27
-153 18 -639 18 -730 1 -153 -29 -181 -44 -310 -158 -97 -85 -139 -115 -220
-154 -226 -110 -385 -220 -540 -373 l-100 -100 -195 -13 c-571 -39 -825 -66
-1050 -110 -145 -28 -317 -72 -410 -106 -57 -20 -65 -27 -68 -51 -2 -19 -9
-27 -23 -27 -10 0 -19 7 -19 15 0 9 -10 15 -26 15 -24 0 -25 2 -19 43 42 305
45 1098 4 1250 -12 46 -38 47 -51 2 -38 -128 -61 -519 -56 -951 l3 -362 -105
-22 c-149 -32 -331 -86 -341 -102 -13 -19 -11 -35 5 -51 21 -20 206 -100 334
-144 59 -20 108 -37 110 -38 1 -1 -5 -71 -13 -156 -9 -87 -18 -306 -22 -504
-7 -452 11 -705 52 -705 50 0 89 468 84 1008 l-4 333 21 -5 c14 -4 24 0 28 9
10 27 36 17 36 -14 0 -62 107 -275 197 -389 29 -37 80 -116 115 -175 l62 -108
111 -54 c60 -30 145 -64 188 -75 43 -11 82 -22 86 -24 5 -3 11 -24 14 -46 7
-56 22 -70 71 -70 49 0 86 23 86 52 0 18 4 20 37 15 21 -3 75 -11 121 -18 66
-9 82 -15 78 -26 -3 -8 -6 -19 -6 -24 0 -5 -9 -9 -20 -9 -15 0 -20 -7 -20 -25
0 -14 4 -25 9 -25 5 0 1 -27 -11 -60 -11 -33 -26 -60 -33 -60 -17 0 -26 -35
-12 -49 8 -8 -14 -11 -79 -11 -164 -1 -346 -35 -444 -85 -130 -67 -138 -153
-21 -242 42 -33 175 -81 234 -86 28 -2 34 -8 51 -51 21 -57 83 -123 141 -151
58 -29 185 -28 242 3 54 28 105 81 128 132 20 43 10 40 165 59 215 27 357 91
377 169 25 100 -196 196 -547 240 l-65 8 40 18 c34 15 62 23 88 25 15 2 7 50
-10 55 -10 3 -29 23 -42 43 -14 21 -31 43 -38 49 -10 9 -11 18 -2 44 l12 32
61 -6 c466 -46 1473 -69 2030 -46 127 5 232 8 234 5 3 -2 -2 -21 -11 -42 -15
-38 -15 -38 -83 -45 -38 -4 -114 -12 -169 -18 -415 -46 -621 -221 -438 -374
64 -53 257 -126 335 -126 22 0 31 -9 51 -54 33 -71 98 -135 173 -172 51 -25
71 -28 149 -29 80 0 97 3 149 29 69 34 135 96 166 155 18 36 25 41 53 41 19 0
85 9 148 21 485 87 597 293 230 423 -127 46 -398 96 -514 96 -42 0 -42 1 -11
77 15 37 22 39 154 48 73 4 1382 127 2300 215 273 26 881 84 1260 120 179 16
393 37 475 45 83 8 533 51 1000 95 468 44 918 87 1000 95 83 8 182 17 221 21
l71 6 13 -31 c14 -34 52 -51 79 -34 41 25 46 58 43 281 l-3 212 21 0 22 0 -7
-190 -8 -189 26 -12 c21 -10 59 -5 224 31 448 95 597 130 637 152 l41 23 5
215 5 215 278 805 c153 443 297 859 320 924 40 113 44 120 73 128 72 18 71 72
-3 106 -57 25 -447 69 -705 79 -110 4 -158 10 -158 18 0 17 -38 55 -55 55 -8
0 -24 -9 -35 -20z m-8629 -1327 c13 -16 12 -17 -3 -4 -17 13 -22 21 -14 21 2
0 10 -8 17 -17z m40 -40 c13 -16 12 -17 -3 -4 -17 13 -22 21 -14 21 2 0 10 -8
17 -17z m2610 -160 c13 -16 12 -17 -3 -4 -10 7 -18 15 -18 17 0 8 8 3 21 -13z
m-2154 -40 c-20 -2 -52 -2 -70 0 -17 2 0 4 38 4 39 0 53 -2 32 -4z m321 -10
c-21 -2 -55 -2 -75 0 -21 2 -4 4 37 4 41 0 58 -2 38 -4z m210 -10 c-15 -2 -42
-2 -60 0 -18 2 -6 4 27 4 33 0 48 -2 33 -4z m309 -10 c-20 -2 -52 -2 -70 0
-17 2 0 4 38 4 39 0 53 -2 32 -4z m128 -234 l0 -224 -75 -1 -75 0 73 3 72 4 0
219 c0 139 -4 220 -10 223 -6 3 -5 4 2 3 10 -2 13 -53 13 -227z m1256 214 c13
-16 12 -17 -3 -4 -10 7 -18 15 -18 17 0 8 8 3 21 -13z m-893 -10 c-32 -2 -84
-2 -115 0 -32 2 -6 3 57 3 63 0 89 -1 58 -3z m470 -10 c-10 -2 -26 -2 -35 0
-10 3 -2 5 17 5 19 0 27 -2 18 -5z m59 -9 c-3 -3 -12 -4 -19 -1 -8 3 -5 6 6 6
11 1 17 -2 13 -5z m404 -21 c13 -16 12 -17 -3 -4 -10 7 -18 15 -18 17 0 8 8 3
21 -13z m-2424 -15 c-3 -8 -6 -5 -6 6 -1 11 2 17 5 13 3 -3 4 -12 1 -19z
m2143 2 c8 -5 11 -10 5 -10 -5 0 -17 5 -25 10 -8 5 -10 10 -5 10 6 0 17 -5 25
-10z m125 -90 c21 -22 37 -40 34 -40 -3 0 -23 18 -44 40 -21 22 -37 40 -34 40
3 0 23 -18 44 -40z m226 13 c13 -16 12 -17 -3 -4 -17 13 -22 21 -14 21 2 0 10
-8 17 -17z m70 -90 c13 -16 12 -17 -3 -4 -10 7 -18 15 -18 17 0 8 8 3 21 -13z
m-2614 -75 c-3 -8 -6 -5 -6 6 -1 11 2 17 5 13 3 -3 4 -12 1 -19z m2684 -15
c13 -16 12 -17 -3 -4 -17 13 -22 21 -14 21 2 0 10 -8 17 -17z m-230 -10 c13
-16 12 -17 -3 -4 -10 7 -18 15 -18 17 0 8 8 3 21 -13z m-3044 -19 c-3 -3 -12
-4 -19 -1 -8 3 -5 6 6 6 11 1 17 -2 13 -5z m3386 -1 c-7 -2 -19 -2 -25 0 -7 3
-2 5 12 5 14 0 19 -2 13 -5z m-3320 -10 c-7 -2 -19 -2 -25 0 -7 3 -2 5 12 5
14 0 19 -2 13 -5z m537 -18 c14 -19 14 -19 -2 -6 -10 7 -18 18 -18 24 0 6 1 8
3 6 1 -2 9 -13 17 -24z m-452 8 c-10 -2 -26 -2 -35 0 -10 3 -2 5 17 5 19 0 27
-2 18 -5z m680 -40 c-21 -2 -55 -2 -75 0 -21 2 -4 4 37 4 41 0 58 -2 38 -4z
m325 -10 c-18 -2 -48 -2 -65 0 -18 2 -4 4 32 4 36 0 50 -2 33 -4z m235 -10
c-21 -2 -55 -2 -75 0 -21 2 -4 4 37 4 41 0 58 -2 38 -4z m1469 -49 c-3 -3 -12
-4 -19 -1 -8 3 -5 6 6 6 11 1 17 -2 13 -5z m-50 -10 c-3 -3 -12 -4 -19 -1 -8
3 -5 6 6 6 11 1 17 -2 13 -5z m-269 -11 c-103 -2 -274 -2 -380 0 -106 1 -22 2
187 2 209 0 296 -1 193 -2z m-3448 -1380 c11 -15 19 -33 18 -41 -3 -14 -96
-57 -105 -49 -8 9 41 117 53 117 7 0 22 -12 34 -27z"/>
</g>
</svg>
